<mxfile host="app.diagrams.net" modified="2022-01-14T15:32:12.364Z" agent="5.0 (X11; Linux x86_64) AppleWebKit/537.36 (KHTML, like Gecko) Chrome/96.0.4664.45 Safari/537.36" etag="MZdV-8IKuoY3t8kSzCkz" version="16.2.4" type="github">
  <diagram id="6KGzm6dKU-b07YVB4iIB" name="第 1 页">
    <mxGraphModel dx="1185" dy="657" grid="1" gridSize="10" guides="1" tooltips="1" connect="1" arrows="1" fold="1" page="1" pageScale="1" pageWidth="850" pageHeight="1100" math="0" shadow="0">
      <root>
        <mxCell id="0" />
        <mxCell id="1" parent="0" />
        <mxCell id="3UUR5aaATVcO7qAqVhn3-2" value="开始" style="strokeWidth=2;html=1;shape=mxgraph.flowchart.start_1;whiteSpace=wrap;" vertex="1" parent="1">
          <mxGeometry x="350" y="40" width="100" height="60" as="geometry" />
        </mxCell>
        <mxCell id="3UUR5aaATVcO7qAqVhn3-3" value="调用SplitSeriesKey()函数分配多数据源数据" style="rounded=1;whiteSpace=wrap;html=1;absoluteArcSize=1;arcSize=14;strokeWidth=2;" vertex="1" parent="1">
          <mxGeometry x="320" y="140" width="160" height="50" as="geometry" />
        </mxCell>
        <mxCell id="3UUR5aaATVcO7qAqVhn3-4" value="调用DispatchAndSend()函数，分发批次数据到数据队列中" style="rounded=1;whiteSpace=wrap;html=1;absoluteArcSize=1;arcSize=14;strokeWidth=2;" vertex="1" parent="1">
          <mxGeometry x="320" y="230" width="160" height="50" as="geometry" />
        </mxCell>
        <mxCell id="3UUR5aaATVcO7qAqVhn3-5" value="检查数据是否处理完毕" style="strokeWidth=2;html=1;shape=mxgraph.flowchart.decision;whiteSpace=wrap;" vertex="1" parent="1">
          <mxGeometry x="315" y="400" width="170" height="80" as="geometry" />
        </mxCell>
        <mxCell id="3UUR5aaATVcO7qAqVhn3-6" value="结束" style="strokeWidth=2;html=1;shape=mxgraph.flowchart.start_1;whiteSpace=wrap;" vertex="1" parent="1">
          <mxGeometry x="350" y="510" width="100" height="60" as="geometry" />
        </mxCell>
        <mxCell id="3UUR5aaATVcO7qAqVhn3-7" value="调用查询算子函数处理数据队列中的数据" style="rounded=1;whiteSpace=wrap;html=1;absoluteArcSize=1;arcSize=14;strokeWidth=2;" vertex="1" parent="1">
          <mxGeometry x="320" y="320" width="160" height="50" as="geometry" />
        </mxCell>
        <mxCell id="3UUR5aaATVcO7qAqVhn3-8" value="" style="strokeWidth=2;html=1;shape=mxgraph.flowchart.annotation_1;align=left;pointerEvents=1;direction=west;" vertex="1" parent="1">
          <mxGeometry x="480" y="340" width="110" height="100" as="geometry" />
        </mxCell>
      </root>
    </mxGraphModel>
  </diagram>
</mxfile>
